<svg width="165" height="55" viewBox="0 0 165 55" fill="none" xmlns="http://www.w3.org/2000/svg">
<g clip-path="url(#clip0_223_1635)">
<path d="M151.86 0.00017875H13.147C12.6414 0.00017875 12.1418 0.00017875 11.6375 0.00292875C11.2154 0.00567875 10.7966 0.0136675 10.3704 0.0203912C9.44452 0.0312562 8.52081 0.112484 7.60731 0.263367C6.69509 0.417536 5.81144 0.708188 4.98626 1.12549C4.16209 1.54633 3.40902 2.09316 2.75437 2.74615C2.09628 3.3973 1.54772 4.14995 1.12977 4.97515C0.710665 5.7987 0.420057 6.68122 0.267981 7.59221C0.11446 8.50206 0.0318494 9.42239 0.0208897 10.345C0.00809391 10.7665 0.00674263 11.1895 0 11.6111V43.3932C0.00674263 43.8202 0.00809391 44.2338 0.0208897 44.6609C0.0318528 45.5834 0.114464 46.5037 0.267981 47.4135C0.419637 48.325 0.710262 49.208 1.12977 50.0319C1.54753 50.8544 2.09617 51.604 2.75437 52.2515C3.40654 52.9074 4.16009 53.4546 4.98626 53.8723C5.81144 54.2907 6.69499 54.5831 7.60731 54.7396C8.52097 54.8893 9.44458 54.9705 10.3704 54.9827C10.7966 54.9921 11.2154 54.9974 11.6375 54.9974C12.1418 55.0002 12.6414 55.0002 13.147 55.0002H151.86C152.356 55.0002 152.86 55.0002 153.355 54.9974C153.775 54.9974 154.206 54.9921 154.626 54.9827C155.55 54.9712 156.472 54.8899 157.384 54.7396C158.299 54.582 159.186 54.2897 160.015 53.8723C160.841 53.4544 161.593 52.9072 162.245 52.2515C162.902 51.6015 163.451 50.8524 163.874 50.0319C164.291 49.2074 164.579 48.3245 164.728 47.4135C164.882 46.5035 164.967 45.5835 164.984 44.6609C164.989 44.2338 164.989 43.8202 164.989 43.3932C165 42.8937 165 42.3969 165 41.8893V13.1124C165 12.6088 165 12.1093 164.989 11.6111C164.989 11.1895 164.989 10.7665 164.984 10.3449C164.967 9.42226 164.882 8.50213 164.728 7.59216C164.578 6.68169 164.29 5.79925 163.874 4.97509C163.023 3.32107 161.673 1.97471 160.015 1.12537C159.186 0.709084 158.299 0.418509 157.384 0.263244C156.472 0.111695 155.55 0.0304394 154.626 0.0201987C154.206 0.0134887 153.775 0.00543125 153.355 0.00275C152.86 0 152.356 0.00017875 151.86 0.00017875Z" fill="#A6A6A6"/>
<path d="M11.6442 53.7969C11.2241 53.7969 10.8141 53.7915 10.3973 53.7822C9.53386 53.7709 8.67241 53.696 7.82004 53.5579C7.02525 53.4214 6.25532 53.1675 5.53563 52.8045C4.82254 52.4446 4.17215 51.9726 3.60936 51.4067C3.03843 50.8475 2.56311 50.1988 2.20222 49.4865C1.83736 48.7696 1.58486 48.0011 1.4535 47.2079C1.31165 46.3555 1.2349 45.4937 1.22392 44.6298C1.21518 44.3398 1.20374 43.3742 1.20374 43.3742V11.611C1.20374 11.611 1.21592 10.6603 1.22399 10.381C1.23451 9.51841 1.31081 8.6579 1.45223 7.80688C1.58383 7.01147 1.83653 6.24078 2.20159 5.52149C2.56115 4.80967 3.03383 4.16056 3.60132 3.59931C4.16818 3.03273 4.82065 2.55833 5.53496 2.19341C6.25299 1.83163 7.02147 1.57951 7.81465 1.4455C8.66982 1.30602 9.53426 1.23062 10.4007 1.21991L11.6449 1.20312H153.348L154.607 1.22059C155.466 1.23076 156.323 1.30549 157.17 1.44415C157.971 1.57984 158.748 1.83372 159.474 2.19744C160.905 2.93286 162.069 4.09635 162.804 5.52485C163.163 6.23917 163.412 7.00357 163.542 7.79211C163.685 8.65011 163.765 9.51739 163.781 10.387C163.785 10.7764 163.785 11.1947 163.785 11.611C163.796 12.1266 163.796 12.6174 163.796 13.1122V41.8891C163.796 42.3886 163.796 42.8761 163.785 43.3675C163.785 43.8147 163.785 44.2243 163.78 44.6458C163.764 45.5 163.685 46.3518 163.544 47.1944C163.416 47.9934 163.165 48.7678 162.8 49.4906C162.436 50.1952 161.964 50.8382 161.399 51.396C160.836 51.9649 160.185 52.4397 159.47 52.8019C158.746 53.1677 157.97 53.4225 157.17 53.5579C156.318 53.6967 155.456 53.7717 154.592 53.7822C154.189 53.7915 153.766 53.7969 153.355 53.7969L151.86 53.7996L11.6442 53.7969Z" fill="black"/>
<path d="M34.1528 27.9134C34.1676 26.7658 34.4733 25.6405 35.0415 24.6423C35.6096 23.6441 36.4217 22.8055 37.4022 22.2044C36.7793 21.3173 35.9576 20.5872 35.0023 20.0722C34.0469 19.5572 32.9844 19.2714 31.8989 19.2375C29.5835 18.9952 27.3388 20.6192 26.1589 20.6192C24.9561 20.6192 23.1395 19.2616 21.1833 19.3017C19.9179 19.3425 18.6847 19.7094 17.6039 20.3668C16.523 21.0241 15.6313 21.9494 15.0157 23.0526C12.349 27.6566 14.3381 34.4231 16.8926 38.1447C18.1707 39.967 19.6644 42.0026 21.6188 41.9305C23.5314 41.8514 24.2457 40.7143 26.5543 40.7143C28.8415 40.7143 29.5117 41.9305 31.5058 41.8846C33.5581 41.8513 34.8511 40.0541 36.0843 38.2145C37.0026 36.916 37.7093 35.4809 38.178 33.9623C36.9857 33.4594 35.9682 32.6177 35.2524 31.542C34.5366 30.4664 34.1542 29.2044 34.1528 27.9134Z" fill="white"/>
<path d="M30.3863 16.79C31.5053 15.4504 32.0565 13.7287 31.923 11.9904C30.2135 12.1694 28.6343 12.9842 27.5002 14.2723C26.9457 14.9016 26.5211 15.6337 26.2505 16.4268C25.9799 17.2198 25.8687 18.0583 25.9232 18.8942C26.7783 18.903 27.6242 18.7182 28.3973 18.3537C29.1704 17.9892 29.8505 17.4545 30.3863 16.79Z" fill="white"/>
<path d="M58.3289 37.317H51.8022L50.2349 41.9321H47.4704L53.6524 24.8574H56.5245L62.7065 41.9321H59.8949L58.3289 37.317ZM52.4782 35.1874H57.6517L55.1013 27.6974H55.0299L52.4782 35.1874Z" fill="white"/>
<path d="M76.0575 35.7084C76.0575 39.5769 73.9811 42.0624 70.8477 42.0624C70.054 42.1038 69.2646 41.9215 68.5699 41.5363C67.8753 41.1511 67.3034 40.5786 66.9199 39.8844H66.8606V46.0504H64.2981V29.4833H66.7785V31.5538H66.8256C67.2268 30.8629 67.8083 30.2934 68.5082 29.9059C69.2082 29.5184 70.0004 29.3273 70.8006 29.353C73.969 29.353 76.0575 31.8506 76.0575 35.7084ZM73.4237 35.7084C73.4237 33.188 72.1175 31.531 70.1246 31.531C68.1667 31.531 66.8498 33.2229 66.8498 35.7084C66.8498 38.2167 68.1667 39.8965 70.1246 39.8965C72.1175 39.8965 73.4237 38.2516 73.4237 35.7084Z" fill="white"/>
<path d="M89.7976 35.7084C89.7976 39.5769 87.7212 42.0624 84.5878 42.0624C83.7941 42.1038 83.0047 41.9215 82.31 41.5363C81.6154 41.1511 81.0435 40.5786 80.66 39.8844H80.6007V46.0504H78.0382V29.4833H80.5185V31.5538H80.5657C80.9668 30.8629 81.5484 30.2934 82.2483 29.9059C82.9483 29.5184 83.7405 29.3273 84.5407 29.353C87.7091 29.353 89.7976 31.8506 89.7976 35.7084ZM87.1638 35.7084C87.1638 33.188 85.8576 31.531 83.8647 31.531C81.9069 31.531 80.5899 33.2229 80.5899 35.7084C80.5899 38.2167 81.9069 39.8965 83.8647 39.8965C85.8576 39.8965 87.1638 38.2516 87.1638 35.7084Z" fill="white"/>
<path d="M98.8787 37.1747C99.0686 38.8679 100.718 39.9797 102.972 39.9797C105.132 39.9797 106.686 38.8679 106.686 37.3411C106.686 36.0158 105.749 35.2222 103.53 34.6784L101.311 34.1453C98.1664 33.388 96.7067 31.9217 96.7067 29.5423C96.7067 26.5962 99.2814 24.5727 102.937 24.5727C106.555 24.5727 109.036 26.5962 109.119 29.5423H106.532C106.378 27.8383 104.965 26.8097 102.901 26.8097C100.837 26.8097 99.424 27.8504 99.424 29.365C99.424 30.5722 100.326 31.2825 102.533 31.8263L104.42 32.2882C107.933 33.1167 109.393 34.524 109.393 37.0215C109.393 40.2159 106.841 42.2167 102.782 42.2167C98.9851 42.2167 96.4212 40.2629 96.2556 37.1746L98.8787 37.1747Z" fill="white"/>
<path d="M114.923 26.5372V29.4833H117.297V31.5068H114.923V38.3697C114.923 39.4359 115.398 39.9327 116.442 39.9327C116.723 39.9278 117.005 39.9081 117.285 39.8736V41.8851C116.815 41.9725 116.339 42.0121 115.861 42.0033C113.334 42.0033 112.348 41.0566 112.348 38.6423V31.5068H110.533V29.4833H112.348V26.5372H114.923Z" fill="white"/>
<path d="M118.672 35.7084C118.672 31.7915 120.985 29.3302 124.592 29.3302C128.212 29.3302 130.514 31.7915 130.514 35.7084C130.514 39.636 128.224 42.0866 124.592 42.0866C120.962 42.0866 118.672 39.636 118.672 35.7084ZM127.904 35.7084C127.904 33.0215 126.669 31.4357 124.592 31.4357C122.516 31.4357 121.283 33.0336 121.283 35.7084C121.283 38.406 122.516 39.9797 124.592 39.9797C126.669 39.9797 127.904 38.406 127.904 35.7084Z" fill="white"/>
<path d="M132.627 29.4833H135.071V31.6021H135.13C135.296 30.9404 135.684 30.3555 136.231 29.946C136.778 29.5364 137.45 29.327 138.133 29.353C138.428 29.352 138.723 29.384 139.011 29.4483V31.8385C138.638 31.7249 138.249 31.6727 137.86 31.6841C137.487 31.669 137.116 31.7345 136.772 31.8759C136.427 32.0174 136.118 32.2315 135.864 32.5036C135.61 32.7757 135.419 33.0994 135.302 33.4523C135.186 33.8052 135.147 34.1791 135.19 34.5482V41.9321H132.627L132.627 29.4833Z" fill="white"/>
<path d="M150.826 38.2758C150.481 40.5356 148.274 42.0865 145.45 42.0865C141.819 42.0865 139.565 39.6601 139.565 35.7674C139.565 31.8627 141.831 29.3302 145.343 29.3302C148.796 29.3302 150.968 31.6962 150.968 35.4707V36.3462H142.151V36.5006C142.111 36.9588 142.168 37.4203 142.32 37.8546C142.472 38.2889 142.715 38.6859 143.032 39.0194C143.35 39.3529 143.735 39.6152 144.162 39.7889C144.589 39.9626 145.049 40.0436 145.51 40.0267C146.115 40.0833 146.723 39.9434 147.242 39.628C147.762 39.3125 148.165 38.8382 148.392 38.2757L150.826 38.2758ZM142.163 34.5603H148.405C148.428 34.1483 148.365 33.7361 148.221 33.3494C148.076 32.9628 147.853 32.61 147.566 32.3134C147.278 32.0167 146.932 31.7825 146.55 31.6254C146.167 31.4684 145.756 31.3919 145.343 31.4008C144.925 31.3983 144.512 31.4782 144.125 31.636C143.739 31.7938 143.388 32.0262 143.093 32.32C142.797 32.6137 142.563 32.9629 142.403 33.3474C142.244 33.732 142.162 34.1442 142.163 34.5603Z" fill="white"/>
<path d="M52.157 12.0051C52.6942 11.9667 53.2333 12.0476 53.7354 12.2421C54.2374 12.4366 54.6899 12.7397 55.0603 13.1297C55.4306 13.5197 55.7096 13.9868 55.877 14.4973C56.0443 15.0078 56.096 15.5489 56.0283 16.0818C56.0283 18.7029 54.6077 20.2095 52.157 20.2095H49.1852V12.0051H52.157ZM50.463 19.0493H52.0143C52.3981 19.0721 52.7823 19.0094 53.1388 18.8655C53.4953 18.7217 53.8151 18.5004 54.075 18.2177C54.3349 17.9351 54.5284 17.5982 54.6412 17.2316C54.7541 16.865 54.7836 16.4779 54.7275 16.0985C54.7795 15.7206 54.7471 15.3359 54.6325 14.972C54.5178 14.6081 54.3239 14.274 54.0646 13.9936C53.8053 13.7132 53.487 13.4934 53.1325 13.3501C52.7781 13.2068 52.3962 13.1434 52.0143 13.1645H50.463V19.0493Z" fill="white"/>
<path d="M57.4718 17.111C57.4328 16.7041 57.4794 16.2935 57.6088 15.9057C57.7382 15.5179 57.9475 15.1613 58.2232 14.8588C58.4989 14.5563 58.8349 14.3146 59.2098 14.1493C59.5846 13.9839 59.99 13.8984 60.3999 13.8984C60.8097 13.8984 61.2151 13.9839 61.59 14.1493C61.9648 14.3146 62.3008 14.5563 62.5765 14.8588C62.8522 15.1613 63.0615 15.5179 63.1909 15.9057C63.3203 16.2935 63.3669 16.7041 63.3279 17.111C63.3677 17.5183 63.3216 17.9294 63.1925 18.3178C63.0635 18.7063 62.8543 19.0636 62.5786 19.3666C62.3028 19.6697 61.9665 19.9119 61.5913 20.0776C61.2161 20.2434 60.8102 20.329 60.3999 20.329C59.9895 20.329 59.5836 20.2434 59.2084 20.0776C58.8332 19.9119 58.4969 19.6697 58.2211 19.3666C57.9454 19.0636 57.7362 18.7063 57.6072 18.3178C57.4781 17.9294 57.432 17.5183 57.4718 17.111ZM62.0675 17.111C62.0675 15.7689 61.4629 14.984 60.4019 14.984C59.3368 14.984 58.7376 15.7689 58.7376 17.111C58.7376 18.4638 59.3368 19.2426 60.4019 19.2426C61.463 19.2426 62.0675 18.4584 62.0675 17.111Z" fill="white"/>
<path d="M71.1123 20.2094H69.8411L68.5579 15.6493H68.4609L67.1831 20.2094H65.924L64.2126 14.0179H65.4555L66.5677 18.7424H66.6593L67.9358 14.0179H69.1113L70.3878 18.7424H70.4848L71.5916 14.0179H72.817L71.1123 20.2094Z" fill="white"/>
<path d="M74.2565 14.0179H75.436V15.0015H75.5276C75.6829 14.6482 75.9449 14.3521 76.2771 14.1543C76.6092 13.9566 76.9949 13.8671 77.3805 13.8984C77.6826 13.8757 77.9859 13.9211 78.268 14.0313C78.5501 14.1414 78.8038 14.3134 79.0102 14.5346C79.2166 14.7557 79.3704 15.0204 79.4603 15.3089C79.5502 15.5974 79.5739 15.9024 79.5295 16.2012V20.2093H78.3042V16.5081C78.3042 15.5131 77.8706 15.0182 76.9644 15.0182C76.7593 15.0087 76.5545 15.0435 76.3641 15.1203C76.1738 15.1971 76.0023 15.314 75.8615 15.463C75.7207 15.612 75.6138 15.7897 75.5483 15.9837C75.4828 16.1778 75.4601 16.3837 75.4818 16.5873V20.2094H74.2565L74.2565 14.0179Z" fill="white"/>
<path d="M81.482 11.6009H82.7074V20.2094H81.482V11.6009Z" fill="white"/>
<path d="M84.4107 17.111C84.3717 16.7041 84.4184 16.2935 84.5479 15.9056C84.6773 15.5178 84.8866 15.1612 85.1623 14.8587C85.438 14.5562 85.7741 14.3145 86.1489 14.1491C86.5238 13.9838 86.9292 13.8983 87.3391 13.8983C87.749 13.8983 88.1544 13.9838 88.5293 14.1491C88.9042 14.3145 89.2402 14.5562 89.516 14.8587C89.7917 15.1612 90.001 15.5178 90.1304 15.9056C90.2598 16.2935 90.3065 16.7041 90.2675 17.111C90.3072 17.5183 90.2611 17.9294 90.132 18.3179C90.0029 18.7063 89.7937 19.0636 89.5179 19.3666C89.2422 19.6697 88.9058 19.9119 88.5306 20.0776C88.1554 20.2433 87.7495 20.3289 87.3391 20.3289C86.9287 20.3289 86.5229 20.2433 86.1476 20.0776C85.7724 19.9119 85.4361 19.6697 85.1603 19.3666C84.8845 19.0636 84.6754 18.7063 84.5463 18.3179C84.4172 17.9294 84.371 17.5183 84.4107 17.111ZM89.0065 17.111C89.0065 15.7689 88.4019 14.984 87.3408 14.984C86.2757 14.984 85.6765 15.7689 85.6765 17.111C85.6765 18.4638 86.2757 19.2426 87.3408 19.2426C88.4019 19.2426 89.0065 18.4584 89.0065 17.111Z" fill="white"/>
<path d="M91.5575 18.4584C91.5575 17.3439 92.3897 16.7014 93.8668 16.6101L95.5486 16.5134V15.979C95.5486 15.3251 95.1151 14.9558 94.2775 14.9558C93.5935 14.9558 93.1195 15.2062 92.9835 15.644H91.7972C91.9224 14.5805 92.9256 13.8984 94.3341 13.8984C95.8907 13.8984 96.7686 14.6711 96.7686 15.979V20.2094H95.589V19.3393H95.4921C95.2953 19.6514 95.019 19.9059 94.6913 20.0767C94.3637 20.2474 93.9964 20.3285 93.6271 20.3114C93.3665 20.3385 93.103 20.3107 92.8538 20.23C92.6046 20.1493 92.375 20.0174 92.18 19.8428C91.985 19.6683 91.8289 19.4549 91.7217 19.2164C91.6145 18.978 91.5585 18.7198 91.5575 18.4584ZM95.5486 17.9294V17.4117L94.0324 17.5084C93.1774 17.5655 92.7896 17.8555 92.7896 18.4014C92.7896 18.9586 93.2743 19.2829 93.9409 19.2829C94.1362 19.3026 94.3335 19.2829 94.521 19.2251C94.7086 19.1672 94.8825 19.0723 95.0325 18.946C95.1825 18.8197 95.3055 18.6646 95.3942 18.49C95.4829 18.3153 95.5354 18.1247 95.5486 17.9294Z" fill="white"/>
<path d="M98.3791 17.111C98.3791 15.1545 99.3877 13.9152 100.956 13.9152C101.344 13.8973 101.73 13.99 102.067 14.1824C102.404 14.3747 102.679 14.6588 102.86 15.0014H102.952V11.6009H104.177V20.2094H103.003V19.2312H102.906C102.711 19.5715 102.426 19.852 102.082 20.0424C101.739 20.2328 101.349 20.3259 100.956 20.3114C99.3769 20.3115 98.3791 19.0721 98.3791 17.111ZM99.6449 17.111C99.6449 18.4242 100.266 19.2144 101.304 19.2144C102.337 19.2144 102.975 18.4128 102.975 17.1163C102.975 15.8259 102.33 15.0129 101.304 15.0129C100.272 15.0129 99.6449 15.8085 99.6449 17.111Z" fill="white"/>
<path d="M109.247 17.111C109.208 16.7041 109.255 16.2935 109.384 15.9057C109.513 15.5179 109.723 15.1613 109.998 14.8588C110.274 14.5563 110.61 14.3146 110.985 14.1493C111.36 13.9839 111.765 13.8984 112.175 13.8984C112.585 13.8984 112.99 13.9839 113.365 14.1493C113.74 14.3146 114.076 14.5563 114.352 14.8588C114.627 15.1613 114.837 15.5179 114.966 15.9057C115.096 16.2935 115.142 16.7041 115.103 17.111C115.143 17.5183 115.097 17.9294 114.968 18.3178C114.839 18.7063 114.63 19.0636 114.354 19.3666C114.078 19.6697 113.742 19.9119 113.367 20.0776C112.991 20.2434 112.586 20.329 112.175 20.329C111.765 20.329 111.359 20.2434 110.984 20.0776C110.608 19.9119 110.272 19.6697 109.996 19.3666C109.721 19.0636 109.512 18.7063 109.382 18.3178C109.253 17.9294 109.207 17.5183 109.247 17.111ZM113.843 17.111C113.843 15.7689 113.238 14.984 112.177 14.984C111.112 14.984 110.513 15.7689 110.513 17.111C110.513 18.4638 111.112 19.2426 112.177 19.2426C113.238 19.2426 113.843 18.4584 113.843 17.111Z" fill="white"/>
<path d="M116.747 14.0179H117.927V15.0015H118.018C118.174 14.6482 118.436 14.3521 118.768 14.1543C119.1 13.9566 119.486 13.8671 119.871 13.8984C120.173 13.8757 120.477 13.9211 120.759 14.0313C121.041 14.1414 121.295 14.3134 121.501 14.5346C121.707 14.7557 121.861 15.0204 121.951 15.3089C122.041 15.5974 122.065 15.9024 122.02 16.2012V20.2093H120.795V16.5081C120.795 15.5131 120.361 15.0182 119.455 15.0182C119.25 15.0087 119.045 15.0435 118.855 15.1203C118.665 15.1971 118.493 15.314 118.352 15.463C118.212 15.612 118.105 15.7897 118.039 15.9837C117.974 16.1778 117.951 16.3837 117.973 16.5873V20.2094H116.747V14.0179Z" fill="white"/>
<path d="M128.944 12.4764V14.0461H130.29V15.0753H128.944V18.259C128.944 18.9076 129.212 19.1916 129.822 19.1916C129.978 19.1911 130.134 19.1817 130.29 19.1634V20.1812C130.069 20.2205 129.846 20.2413 129.623 20.2436C128.26 20.2436 127.718 19.7656 127.718 18.5719V15.0753H126.732V14.046H127.718V12.4764H128.944Z" fill="white"/>
<path d="M131.963 11.6009H133.178V15.0129H133.275C133.438 14.6563 133.707 14.3585 134.046 14.16C134.384 13.9615 134.776 13.872 135.168 13.9037C135.468 13.8874 135.769 13.9375 136.048 14.0503C136.327 14.1631 136.577 14.3359 136.782 14.5563C136.986 14.7768 137.139 15.0395 137.229 15.3257C137.32 15.6119 137.346 15.9145 137.306 16.212V20.2094H136.08V16.5134C136.08 15.5245 135.618 15.0236 134.752 15.0236C134.541 15.0064 134.33 15.0352 134.131 15.1082C133.933 15.1811 133.753 15.2964 133.604 15.4459C133.455 15.5954 133.341 15.7756 133.269 15.9738C133.197 16.172 133.17 16.3834 133.189 16.5933V20.2094H131.963L131.963 11.6009Z" fill="white"/>
<path d="M144.451 18.5377C144.285 19.1035 143.924 19.593 143.432 19.9205C142.94 20.2479 142.349 20.3925 141.761 20.3289C141.352 20.3397 140.945 20.2615 140.569 20.0999C140.194 19.9383 139.858 19.6971 139.585 19.3931C139.312 19.089 139.109 18.7294 138.989 18.3391C138.87 17.9489 138.837 17.5373 138.893 17.1331C138.838 16.7277 138.872 16.3152 138.991 15.9238C139.11 15.5324 139.312 15.1711 139.584 14.8644C139.855 14.5576 140.19 14.3127 140.564 14.146C140.939 13.9793 141.345 13.8949 141.755 13.8984C143.483 13.8984 144.525 15.0754 144.525 17.0196V17.446H140.141V17.5145C140.122 17.7417 140.15 17.9704 140.225 18.1859C140.3 18.4015 140.418 18.5991 140.574 18.7661C140.73 18.9331 140.919 19.0658 141.129 19.1557C141.339 19.2456 141.566 19.2908 141.794 19.2882C142.087 19.3233 142.384 19.2707 142.647 19.137C142.91 19.0034 143.128 18.7947 143.272 18.5376L144.451 18.5377ZM140.141 16.5423H143.277C143.292 16.3345 143.264 16.1258 143.194 15.9295C143.123 15.7333 143.013 15.5539 142.869 15.4028C142.725 15.2518 142.551 15.1324 142.358 15.0524C142.165 14.9724 141.957 14.9336 141.749 14.9384C141.537 14.9357 141.326 14.9754 141.13 15.0551C140.934 15.1347 140.755 15.2528 140.606 15.4023C140.456 15.5517 140.337 15.7296 140.258 15.9254C140.178 16.1212 140.138 16.331 140.141 16.5423Z" fill="white"/>
</g>
<defs>
<clipPath id="clip0_223_1635">
<rect width="165" height="55" fill="white"/>
</clipPath>
</defs>
</svg>
